<svg xmlns="http://www.w3.org/2000/svg" xmlns:xlink="http://www.w3.org/1999/xlink" width="500" zoomAndPan="magnify" viewBox="0 0 375 374.999991" height="500" preserveAspectRatio="xMidYMid meet" version="1.0"><defs><clipPath id="0c8b514609"><path d="M 53.503906 32.816406 L 321.253906 32.816406 L 321.253906 341.816406 L 53.503906 341.816406 Z M 53.503906 32.816406 " clip-rule="nonzero"/></clipPath></defs><g clip-path="url(#0c8b514609)"><path fill="#38b6ff" d="M 261.257812 229.972656 L 199.632812 265.542969 L 197.757812 266.628906 L 187.359375 272.632812 L 167.394531 284.152344 L 147.390625 295.707031 L 127.425781 284.152344 L 73.496094 253.046875 L 73.496094 121.585938 L 127.425781 90.480469 L 147.390625 78.964844 L 167.394531 90.480469 L 187.359375 102 L 203.535156 111.339844 L 207.101562 113.40625 L 261.257812 144.65625 L 281.261719 133.140625 L 301.226562 121.585938 L 321.230469 110.066406 L 301.226562 98.546875 L 254.3125 71.460938 L 187.359375 32.816406 L 167.394531 44.335938 L 187.359375 55.890625 L 223.539062 76.75 L 281.261719 110.066406 L 261.257812 121.585938 L 213.558594 94.046875 L 187.359375 78.964844 L 167.394531 67.40625 L 147.390625 55.890625 L 127.425781 67.40625 L 120.445312 71.460938 L 107.460938 78.964844 L 53.53125 110.066406 L 53.53125 264.566406 L 107.460938 295.667969 L 120.445312 303.210938 L 127.425781 307.222656 L 147.390625 318.742188 L 167.394531 307.222656 L 187.359375 295.707031 L 209.617188 282.835938 L 261.257812 253.046875 L 281.261719 264.566406 L 213.855469 303.472656 L 187.359375 318.742188 L 167.394531 330.296875 L 187.359375 341.816406 L 223.878906 320.769531 L 254.3125 303.210938 L 301.226562 276.121094 L 321.230469 264.566406 L 301.226562 253.046875 L 281.261719 241.492188 Z M 113.464844 157.339844 L 113.464844 144.65625 L 167.394531 113.554688 L 147.390625 102 L 93.5 133.140625 L 93.5 177.335938 L 220.539062 177.335938 L 220.539062 197.296875 L 93.5 197.296875 L 93.5 241.492188 L 147.390625 272.632812 L 167.394531 261.078125 L 113.464844 229.972656 L 113.464844 217.292969 L 240.539062 217.292969 L 240.539062 157.339844 Z M 113.464844 157.339844 " fill-opacity="1" fill-rule="evenodd"/></g></svg>